#!Matlab matrix to amc conversion
:FULLY-SPECIFIED
:DEGREES
15
root -0.172912 0.344779 6.067485 12.683792 -1.898639 -11.291865
lowerback -3.092927 2.540174 8.629362
upperback 0.534086 2.956999 3.694870
thorax 2.754654 1.429012 -0.836014
lowerneck -17.005320 -6.845215 -18.427325
upperneck 5.362883 -8.820543 24.204182
head 5.570405 -2.740395 10.094145
rclavicle 0.000000 -0.000000
rhumerus -26.271710 24.839802 -77.675333
rradius 54.311270
rwrist -34.097628
rhand -28.856200 -18.800500
rfingers 7.125020
rthumb -2.212790 -48.768800
lclavicle 0.000000 -0.000000
lhumerus -61.548207 30.789867 27.544626
lradius 9.597335
lwrist -46.683106
lhand -19.668800 -28.799300
lfingers 7.125020
lthumb 6.659510 1.076010
rfemur 3.332838 -3.499581 31.736537
rtibia 28.061128
rfoot -7.073708 5.774838
rtoes -20.766800
lfemur -42.549281 9.366468 -14.581321
ltibia 34.248794
lfoot -7.389526 5.380030
ltoes -22.051700
16
root -0.145354 0.341770 6.325310 10.790307 -1.991695 -6.786933
lowerback -1.742546 2.134014 3.555228
upperback 0.802933 2.549389 2.705456
thorax 2.102991 1.229364 0.984818
lowerneck -16.265982 -5.547899 -18.238097
upperneck 6.259919 -6.543121 21.329164
head 5.221308 -2.049709 9.367577
rclavicle 0.000000 0.000000
rhumerus -25.428603 27.539237 -80.562839
rradius 50.231506
rwrist -31.631517
rhand -28.856200 -18.800500
rfingers 7.125020
rthumb -2.212790 -48.768800
lclavicle 0.000000 0.000000
lhumerus -57.217331 27.820778 36.648373
lradius 10.558169
lwrist -37.639669
lhand -19.668800 -28.799300
lfingers 7.125020
lthumb 6.659510 1.076010
rfemur -3.330743 -3.100605 27.754379
rtibia 40.849604
rfoot 0.849755 -3.060953
rtoes -20.766800
lfemur -34.226639 6.521852 -17.927939
ltibia 29.384873
lfoot -7.191213 4.687806
ltoes -22.051700
17
root -0.142121 0.385762 6.605471 9.035846 -3.508339 0.212475
lowerback -1.905834 1.465004 -3.333342
upperback 0.959862 1.984717 1.577754
thorax 2.026615 0.932968 3.650080
lowerneck -16.940248 -4.090126 -15.956867
upperneck 9.453601 -4.480804 17.507728
head 6.063610 -1.337917 7.988683
rclavicle 0.000000 0.000000
rhumerus -22.980641 26.109658 -81.513181
rradius 45.447299
rwrist -24.379126
rhand -28.856200 -18.800500
rfingers 7.125020
rthumb -2.212790 -48.768800
lclavicle 0.000000 0.000000
lhumerus -50.647154 24.986379 49.317412
lradius 11.738438
lwrist -34.166902
lhand -19.668800 -28.799300
lfingers 7.125020
lthumb 6.659510 1.076010
rfemur -11.534068 -3.634596 19.741269
rtibia 58.842737
rfoot 4.859744 -10.622504
rtoes -20.766800
lfemur -30.807172 3.943822 -24.357701
ltibia 32.907113
lfoot -11.205801 2.881424
ltoes -22.051700
18
root -0.126655 0.473668 6.976865 8.579611 -4.166178 3.375510
lowerback -2.615524 1.054042 -6.347189
upperback 0.771946 1.609737 1.211786
thorax 2.111168 0.738698 4.936843
lowerneck -17.707804 -3.532316 -14.465878
upperneck 11.522923 -3.784993 15.766389
head 6.785573 -1.081654 7.256032
rclavicle -0.000000 0.000000
rhumerus -21.765362 24.093178 -81.463266
rradius 41.524471
rwrist -19.475616
rhand -28.856200 -18.800500
rfingers 7.125020
rthumb -2.212790 -48.768800
lclavicle -0.000000 0.000000
lhumerus -44.853102 18.616605 60.823319
lradius 13.167048
lwrist -28.403888
lhand -19.668800 -28.799300
lfingers 7.125020
lthumb 6.659510 1.076010
rfemur -17.390644 -4.296914 16.526448
rtibia 68.065467
rfoot 0.097307 -14.549203
rtoes -20.766800
lfemur -28.475580 2.218546 -26.815411
ltibia 33.358306
lfoot -13.330124 3.163297
ltoes -22.051700
19
root -0.102135 0.563910 7.392882 8.673985 -4.032465 4.083097
lowerback -3.095969 0.605709 -7.034608
upperback 0.563109 1.070022 1.354290
thorax 2.188737 0.464318 5.437672
lowerneck -18.388894 -3.329606 -13.540273
upperneck 13.615210 -3.603613 14.838889
head 7.599377 -1.028021 6.848567
rclavicle 0.000000 0.000000
rhumerus -22.043307 23.351654 -81.591948
rradius 38.235441
rwrist -16.074334
rhand -28.856200 -18.800500
rfingers 7.125020
rthumb -2.212790 -48.768800
lclavicle 0.000000 0.000000
lhumerus -40.492581 12.570542 68.706353
lradius 14.160037
lwrist -23.575145
lhand -19.668800 -28.799300
lfingers 7.125020
lthumb 6.659510 1.076010
rfemur -22.086649 -4.774097 16.784922
rtibia 71.412106
rfoot -8.040405 -14.625049
rtoes -20.766800
lfemur -26.457033 0.465441 -26.979837
ltibia 33.202502
lfoot -15.151873 4.155282
ltoes -22.051700
20
root -0.081815 0.624993 7.828977 8.683878 -3.558891 4.227097
lowerback -3.163325 0.171329 -7.159546
upperback 0.323855 0.501396 1.596114
thorax 2.033980 0.184482 5.723531
lowerneck -19.270000 -3.263628 -12.777991
upperneck 15.889344 -3.541747 13.825361
head 8.533873 -1.048403 6.429324
rclavicle 0.000000 -0.000000
rhumerus -23.135537 23.266029 -81.778596
rradius 35.849659
rwrist -13.902784
rhand -28.856200 -18.800500
rfingers 7.125020
rthumb -2.212790 -48.768800
lclavicle 0.000000 -0.000000
lhumerus -37.631845 6.748071 74.405206
lradius 15.647136
lwrist -18.514558
lhand -19.668800 -28.799300
lfingers 7.125020
lthumb 6.659510 1.076010
rfemur -25.811963 -4.902659 17.753855
rtibia 71.752732
rfoot -14.357433 -13.457378
rtoes -20.766800
lfemur -24.738962 -0.927588 -26.839853
ltibia 33.436770
lfoot -16.844362 4.986566
ltoes -22.051700
21
root -0.065395 0.651439 8.279773 8.544236 -3.050954 4.112659
lowerback -3.025845 -0.103762 -6.912936
upperback 0.110418 0.115555 1.777322
thorax 1.782122 0.001670 5.750666
lowerneck -20.029646 -3.252595 -12.291829
upperneck 17.432018 -3.500023 13.013692
head 9.198771 -1.073621 6.106442
rclavicle 0.000000 -0.000000
rhumerus -24.540586 23.089244 -81.953715
rradius 34.738270
rwrist -13.097752
rhand -28.856200 -18.800500
rfingers 7.125020
rthumb -2.212790 -48.768800
lclavicle 0.000000 -0.000000
lhumerus -35.979346 1.736418 78.113970
lradius 17.456252
lwrist -13.797639
lhand -19.668800 -28.799300
lfingers 7.125020
lthumb 6.659510 1.076010
rfemur -28.240867 -4.797146 18.487549
rtibia 70.856213
rfoot -17.239077 -12.781348
rtoes -20.766800
lfemur -23.248398 -1.470969 -26.714049
ltibia 33.473905
lfoot -17.880984 5.278457
ltoes -22.051700
22
root -0.048896 0.657581 8.736853 8.437029 -2.603892 3.929479
lowerback -2.920134 -0.276000 -6.595031
upperback -0.020765 -0.135348 1.889059
thorax 1.619752 -0.116378 5.674093
lowerneck -20.516752 -3.254128 -12.016815
upperneck 18.224071 -3.469259 12.507920
head 9.556118 -1.088167 5.905770
rclavicle 0.000000 -0.000000
rhumerus -25.678409 22.834916 -82.075293
rradius 34.354375
rwrist -12.885287
rhand -28.856200 -18.800500
rfingers 7.125020
rthumb -2.212790 -48.768800
lclavicle 0.000000 -0.000000
lhumerus -34.916828 -1.706241 80.254009
lradius 18.822756
lwrist -10.560566
lhand -19.668800 -28.799300
lfingers 7.125020
lthumb 6.659510 1.076010
rfemur -29.721857 -4.732169 18.926085
rtibia 69.933936
rfoot -18.358826 -12.490119
rtoes -20.766800
lfemur -22.131032 -1.619515 -26.601578
ltibia 33.256457
lfoot -18.391129 5.268696
ltoes -22.051700
23
root -0.030985 0.654048 9.195998 8.392680 -2.236624 3.763315
lowerback -2.846874 -0.407860 -6.337186
upperback -0.094839 -0.327709 1.969481
thorax 1.526703 -0.207998 5.602068
lowerneck -20.842654 -3.258678 -11.842832
upperneck 18.671551 -3.448045 12.177302
head 9.765676 -1.097585 5.773606
rclavicle 0.000000 -0.000000
rhumerus -26.558829 22.630967 -82.161261
rradius 34.196864
rwrist -12.819276
rhand -28.856200 -18.800500
rfingers 7.125020
rthumb -2.212790 -48.768800
lclavicle 0.000000 -0.000000
lhumerus -34.106137 -4.190419 81.636331
lradius 19.828205
lwrist -8.301915
lhand -19.668800 -28.799300
lfingers 7.125020
lthumb 6.659510 1.076010
rfemur -30.791102 -4.707654 19.242040
rtibia 69.109551
rfoot -18.966569 -12.300481
rtoes -20.766800
lfemur -21.320480 -1.701427 -26.503349
ltibia 33.047776
lfoot -18.741103 5.205291
ltoes -22.051700
